<?xml version="1.0" encoding="iso-8859-1"?>
<!-- Generator: Adobe Illustrator 19.0.0, SVG Export Plug-In . SVG Version: 6.00 Build 0)  -->
<svg xmlns="http://www.w3.org/2000/svg" xmlns:xlink="http://www.w3.org/1999/xlink" version="1.1" id="Capa_1" x="0px" y="0px" viewBox="0 0 512 512" style="enable-background:new 0 0 512 512;" xml:space="preserve" width="512px" height="512px">
<g>
	<g>
		<path d="M0,332v180h210V332H0z M180,482H30v-90h150V482z" fill="#89bed9"/>
	</g>
</g>
<g>
	<g>
		<polygon points="271,241 271,210 241,210 241,241 90,241 90,302 120,302 120,271 392,271 392,302 422,302 422,241   " fill="#89bed9"/>
	</g>
</g>
<g>
	<g>
		<path d="M302,332v180h210V332H302z M482,482H332v-90h150V482z" fill="#89bed9"/>
	</g>
</g>
<g>
	<g>
		<path d="M151,0v180h210V0H151z M331,150H181V60h150V150z" fill="#89bed9"/>
	</g>
</g>
<g>
</g>
<g>
</g>
<g>
</g>
<g>
</g>
<g>
</g>
<g>
</g>
<g>
</g>
<g>
</g>
<g>
</g>
<g>
</g>
<g>
</g>
<g>
</g>
<g>
</g>
<g>
</g>
<g>
</g>
</svg>
